<svg xmlns="http://www.w3.org/2000/svg" width="270" height="100" class="iconLeftSlogan" viewBox="30 100 270 100">
	<path fill="transparent" class="logo-background-square" d="M30 100h270v100H30z" />
	<path fill="currentColor"  d="M1.64 13.09q-.14 0-.23-.08-.09-.09-.09-.23V3.61q0-.15.09-.24.09-.08.23-.08h.35q.21 0 .29.18l3.18 6.19 3.19-6.19q.1-.18.3-.18h.33q.16 0 .24.08.08.09.08.24v9.17q0 .14-.09.23-.09.08-.23.08h-.25q-.14 0-.22-.08-.09-.09-.09-.23V5.19l-2.67 5.27q-.13.28-.44.28h-.3q-.31 0-.44-.28L2.2 5.19v7.59q0 .14-.09.23-.08.08-.22.08h-.25Zm12.37.14q-.67 0-1.24-.28-.58-.28-.92-.76-.34-.47-.34-1.05 0-.92.75-1.51t2.02-.75l2.21-.31v-.49q0-.77-.47-1.19-.47-.41-1.43-.41-.72 0-1.17.28-.46.28-.58.67-.06.17-.13.24-.08.06-.21.06h-.19q-.13 0-.22-.09T12 7.42q0-.31.28-.72t.87-.72q.58-.31 1.44-.31 1.5 0 2.13.71.63.72.63 1.74v4.66q0 .14-.09.23-.08.08-.22.08h-.24q-.14 0-.22-.08-.09-.09-.09-.23v-.66q-.31.47-.9.79-.6.32-1.58.32Zm.14-.81q1.03 0 1.68-.67.66-.68.66-1.94v-.47l-1.8.25q-1.15.15-1.74.53-.59.38-.59.95 0 .65.54 1t1.25.35Zm7.86.67q-1.04 0-1.47-.62-.44-.63-.44-1.72V6.62h-1.09q-.14 0-.22-.08-.09-.09-.09-.23v-.19q0-.14.09-.23.08-.08.22-.08h1.09V3.46q0-.14.09-.23.08-.08.22-.08h.24q.14 0 .22.08.09.09.09.23v2.35h1.73q.14 0 .23.08.08.09.08.23v.19q0 .14-.08.23-.09.08-.23.08h-1.73v4.08q0 .78.26 1.18.26.4.86.4h.75q.14 0 .23.08.08.09.08.23v.19q0 .14-.08.23-.09.08-.23.08h-.82Zm5.33.14q-1.45 0-2.25-.85-.8-.84-.84-2.37l-.02-.56.02-.56q.04-1.53.84-2.37.8-.85 2.25-.85.93 0 1.58.33t.97.84q.32.51.35 1.06.01.12-.08.21-.1.09-.23.09h-.19q-.14 0-.21-.06-.06-.06-.13-.23-.28-.77-.78-1.1-.51-.33-1.28-.33-1.01 0-1.6.61-.6.61-.64 1.87l-.01.49.01.49q.04 1.26.64 1.87.59.61 1.6.61.77 0 1.28-.33.5-.33.78-1.1.07-.17.13-.23.07-.06.21-.06h.19q.13 0 .23.09.09.09.08.21-.03.55-.35 1.06-.32.51-.97.84-.65.33-1.58.33Zm5.07-.14q-.14 0-.22-.08-.09-.09-.09-.23V3.46q0-.14.09-.23.08-.08.22-.08h.24q.14 0 .22.08.09.09.09.23v3.32q.42-.55.95-.83.54-.28 1.4-.28 1.37 0 2.11.87.74.88.74 2.27v3.97q0 .14-.08.23-.08.08-.22.08h-.24q-.14 0-.23-.08-.08-.09-.08-.23v-3.9q0-1.14-.55-1.77-.56-.63-1.59-.63-1.01 0-1.61.64-.6.64-.6 1.76v3.9q0 .14-.09.23-.08.08-.22.08h-.24Zm9.91.14q-.67 0-1.24-.28-.58-.28-.92-.76-.34-.47-.34-1.05 0-.92.75-1.51.74-.59 2.02-.75l2.21-.31v-.49q0-.77-.47-1.19-.47-.41-1.43-.41-.72 0-1.17.28-.46.28-.58.67-.06.17-.14.24-.07.06-.2.06h-.2q-.12 0-.21-.09t-.09-.22q0-.31.28-.72t.86-.72q.59-.31 1.45-.31 1.49 0 2.12.71.63.72.63 1.74v4.66q0 .14-.08.23-.08.08-.22.08h-.24q-.14 0-.23-.08-.08-.09-.08-.23v-.66q-.31.47-.9.79-.6.32-1.58.32Zm.14-.81q1.02 0 1.68-.67.66-.68.66-1.94v-.47l-1.81.25q-1.14.15-1.73.53-.59.38-.59.95 0 .65.54 1t1.25.35Z" transform="matrix(3.51133 0 0 3.51133 120.25 111.558)" />
	<g>
		<path fill="currentColor"  d="M60.185 150.896c.046 3.245.341 6.339.85 9.127-1.742-.605-3.199-1.319-4.264-2.123a.897.897 0 0 0-1.08 1.432c1.42 1.07 3.394 1.988 5.76 2.719.8 3.43 1.945 6.265 3.356 8.136a.896.896 0 1 0 1.432-1.078c-1.13-1.498-2.084-3.764-2.802-6.518 3.364.822 7.329 1.303 11.547 1.364v7.314a.896.896 0 1 0 1.792 0v-7.314c4.186-.06 8.124-.535 11.473-1.346-.718 2.746-1.67 5.005-2.797 6.5a.896.896 0 0 0 1.432 1.078c1.407-1.867 2.55-4.694 3.35-8.115 2.399-.734 4.398-1.659 5.833-2.74a.897.897 0 0 0-1.079-1.432c-1.08.816-2.562 1.539-4.337 2.15.51-2.796.808-5.9.854-9.154h5.644a.896.896 0 1 0 0-1.792h-5.644c-.046-3.255-.342-6.359-.854-9.153 1.775.61 3.256 1.334 4.337 2.149a.897.897 0 0 0 1.08-1.432c-1.435-1.081-3.435-2.006-5.834-2.74-.8-3.42-1.943-6.248-3.35-8.115a.896.896 0 1 0-1.432 1.079c1.126 1.494 2.079 3.754 2.797 6.498-3.349-.81-7.287-1.285-11.473-1.345v-7.313a.896.896 0 1 0-1.792 0v7.313c-4.217.06-8.184.542-11.547 1.364.718-2.754 1.674-5.02 2.802-6.517a.896.896 0 0 0-1.432-1.079c-1.41 1.871-2.555 4.706-3.356 8.136-2.366.73-4.34 1.65-5.76 2.719a.897.897 0 0 0 1.08 1.432c1.066-.804 2.522-1.518 4.264-2.124-.509 2.789-.804 5.883-.85 9.128H54.61a.896.896 0 1 0 0 1.792h5.575zm16.59 0h12.938c-.052 3.484-.408 6.818-1.01 9.742-3.388.912-7.54 1.458-11.927 1.524v-11.266zm0-13.059c4.388.067 8.54.613 11.928 1.525.6 2.924.958 6.258 1.01 9.742H76.776v-11.267zm-14.798 13.06h13.006v11.266c-4.418-.067-8.598-.622-12-1.544-.599-2.92-.953-6.248-1.006-9.723zm0-1.793c.053-3.476.407-6.803 1.006-9.723 3.402-.923 7.583-1.477 12-1.543v11.266H61.978z" />
		<path fill="currentColor" d="M75.879 177.674c15.26 0 27.675-12.414 27.675-27.674 0-.088-.005-.176-.006-.264.241.03.484.049.732.049 3.372 0 6.116-2.743 6.116-6.116s-2.743-6.116-6.116-6.116a6.08 6.08 0 0 0-3.244.941 27.58 27.58 0 0 0-24.288-16.136v-7.314a.896.896 0 1 0-1.792 0v7.316a27.705 27.705 0 0 0-23.828 15.289 6.423 6.423 0 0 0-4.682-2.028A6.453 6.453 0 0 0 40 142.066a6.454 6.454 0 0 0 6.446 6.447c.632 0 1.242-.095 1.82-.266-.038.584-.06 1.17-.06 1.753 0 .681.032 1.364.081 2.042-2.494.393-4.41 2.55-4.41 5.154a5.229 5.229 0 0 0 5.225 5.223 5.19 5.19 0 0 0 1.883-.357c4.613 9.505 14.288 15.612 24.895 15.612zm-26.776-23.91a3.435 3.435 0 0 1 3.43 3.432 3.435 3.435 0 0 1-3.43 3.43 3.435 3.435 0 0 1-3.432-3.43 3.435 3.435 0 0 1 3.432-3.432zm1.998-11.698a4.659 4.659 0 0 1-4.654 4.654 4.658 4.658 0 0 1-4.653-4.654 4.658 4.658 0 0 1 4.653-4.653 4.659 4.659 0 0 1 4.654 4.653zm48.857 1.603c0-2.384 1.939-4.323 4.323-4.323s4.323 1.94 4.323 4.323-1.939 4.323-4.323 4.323-4.323-1.94-4.323-4.323zm-47.434 17.463a5.208 5.208 0 0 0 1.802-3.937 5.229 5.229 0 0 0-4.24-5.127 26.266 26.266 0 0 1-.088-2.068c0-.886.05-1.778.14-2.658a6.44 6.44 0 0 0 2.754-5.276 6.398 6.398 0 0 0-.607-2.713c4.185-9.256 13.434-15.235 23.595-15.235a25.82 25.82 0 0 1 23.745 15.595 6.086 6.086 0 0 0-1.461 3.956c0 2.468 1.472 4.593 3.581 5.558.008.258.017.515.017.773 0 14.27-11.611 25.882-25.882 25.882-9.976 0-19.07-5.775-23.356-14.749zm5.995-40.46c0-3.598-2.926-6.524-6.523-6.524s-6.525 2.926-6.525 6.523 2.927 6.525 6.525 6.525 6.523-2.927 6.523-6.525zm-1.792 0c0 2.61-2.123 4.732-4.73 4.732s-4.733-2.123-4.733-4.733c0-2.608 2.123-4.73 4.732-4.73s4.73 2.122 4.73 4.73zm37.904 58.657a6.53 6.53 0 0 0 6.524 6.523 6.531 6.531 0 0 0 6.524-6.523 6.532 6.532 0 0 0-6.524-6.525 6.532 6.532 0 0 0-6.524 6.525zm1.793 0a4.737 4.737 0 0 1 4.73-4.733 4.737 4.737 0 0 1 4.732 4.733 4.737 4.737 0 0 1-4.731 4.73 4.736 4.736 0 0 1-4.73-4.73zm8.891-51.401 5.452.07h.011a.897.897 0 0 0 .718-1.433l-3.26-4.37 1.751-5.162a.897.897 0 0 0-1.137-1.137l-5.162 1.75-4.37-3.26a.896.896 0 0 0-1.432.73l.069 5.451-4.451 3.149a.896.896 0 0 0 .25 1.587l5.208 1.618 1.618 5.207a.896.896 0 0 0 1.588.25l3.147-4.45zm3.66-1.746-4.108-.053h-.01a.896.896 0 0 0-.733.379l-2.371 3.353-1.22-3.922a.896.896 0 0 0-.59-.59l-3.92-1.219 3.352-2.372a.894.894 0 0 0 .379-.743l-.052-4.105 3.291 2.456a.901.901 0 0 0 .824.13l3.89-1.32-1.32 3.89a.895.895 0 0 0 .131.824l2.456 3.292zm-68.848 46.37a.895.895 0 0 0 .08.943l3.26 4.37-1.75 5.162a.897.897 0 0 0 1.137 1.138l5.163-1.751 4.37 3.26a.9.9 0 0 0 .943.08.896.896 0 0 0 .49-.81l-.07-5.451 4.45-3.148a.896.896 0 0 0-.25-1.588l-5.207-1.618-1.619-5.206a.896.896 0 0 0-1.587-.25l-3.148 4.45-5.451-.07h-.012a.897.897 0 0 0-.799.489zm2.603 1.326 4.107.054a.955.955 0 0 0 .744-.38l2.37-3.352 1.22 3.921a.896.896 0 0 0 .59.59l3.922 1.22-3.353 2.37a.897.897 0 0 0-.38.745l.053 4.106-3.292-2.456a.903.903 0 0 0-.824-.131l-3.89 1.318 1.32-3.89a.896.896 0 0 0-.131-.823l-2.456-3.29z" />
	</g>
</svg>
